<?xml version="1.0" encoding="utf-8"?>
<!-- Generator: Adobe Illustrator 24.1.2, SVG Export Plug-In . SVG Version: 6.00 Build 0)  -->
<svg version="1.1" xmlns="http://www.w3.org/2000/svg" xmlns:xlink="http://www.w3.org/1999/xlink" x="0px" y="0px"
	 viewBox="0 0 300 300" style="enable-background:new 0 0 300 300;" xml:space="preserve">
<style type="text/css">
	.st0{display:none;}
	.st1{display:inline;fill:#FFF7C6;}
	.st2{display:inline;fill:#FFFFFF;stroke:#555555;stroke-width:3;stroke-miterlimit:10;}
	.st3{fill:#FFF7C6;}
	.st4{fill:#FFFFFF;stroke:#555555;stroke-width:3;stroke-miterlimit:10;}
</style>
<g id="Layer_2" class="st0">
	<polygon class="st1" points="82,219 214,219 193.69,228.5 104.48,228.5 	"/>
	<path class="st2" d="M97.42,215.65C90.83,177.56,68.27,47,68.27,47H49.5l32.03,206H212.4c0,0,2.68,0,6.07,0
		c0,0,32.03-206,32.03-206h-18.77c0,0-23.06,134.4-30.7,178.96c-22.45,0-101.83,0-101.83,0S98.54,222.16,97.42,215.65z"/>
</g>
<g id="Layer_2_copy_3" class="st0">
	<polygon class="st1" points="77,172 223,172 200.54,239 101.87,239 	"/>
	<path class="st2" d="M97.42,215.65C90.83,177.56,68.27,47,68.27,47H49.5l32.03,206H212.4c0,0,2.68,0,6.07,0
		c0,0,32.03-206,32.03-206h-18.77c0,0-23.06,134.4-30.7,178.96c-22.45,0-101.83,0-101.83,0S98.54,222.16,97.42,215.65z"/>
</g>
<g id="Layer_2_copy" class="st0">
	<polygon class="st1" points="70,128 222,128 198.62,228.5 95.89,228.5 	"/>
	<path class="st2" d="M97.42,215.65C90.83,177.56,68.27,47,68.27,47H49.5l32.03,206H212.4c0,0,2.68,0,6.07,0
		c0,0,32.03-206,32.03-206h-18.77c0,0-23.06,134.4-30.7,178.96c-22.45,0-101.83,0-101.83,0S98.54,222.16,97.42,215.65z"/>
</g>
<g id="Layer_2_copy_4" class="st0">
	<polygon class="st1" points="70,99 229,99 204.54,228.5 97.08,228.5 	"/>
	<path class="st2" d="M97.42,215.65C90.83,177.56,68.27,47,68.27,47H49.5l32.03,206H212.4c0,0,2.68,0,6.07,0
		c0,0,32.03-206,32.03-206h-18.77c0,0-23.06,134.4-30.7,178.96c-22.45,0-101.83,0-101.83,0S98.54,222.16,97.42,215.65z"/>
</g>
<g id="Layer_2_copy_2">
	<polygon class="st3" points="56.5,53.5 238.5,53.5 210.5,228.5 87.5,228.5 	"/>
	<path class="st4" d="M97.42,215.65C90.83,177.56,68.27,47,68.27,47H49.5l32.03,206H212.4c0,0,2.68,0,6.07,0
		c0,0,32.03-206,32.03-206h-18.77c0,0-23.06,134.4-30.7,178.96c-22.45,0-101.83,0-101.83,0S98.54,222.16,97.42,215.65z"/>
</g>
</svg>
